<svg xmlns="http://www.w3.org/2000/svg" width="1200" height="720" viewBox="0 0 1200 720" role="img" aria-label="TADDDEQRELU tile operation diagram">
<defs>
  <marker id="arrow" markerWidth="8" markerHeight="8" refX="7" refY="4" orient="auto"><path d="M0,0 L0,8 L8,4 z" fill="#2D5BCE"/></marker>
  <marker id="axisArrow" markerWidth="8" markerHeight="8" refX="7" refY="4" orient="auto"><path d="M0,0 L0,8 L8,4 z" fill="#64748b"/></marker>
</defs>
<style>
svg { font-family: Arial, Helvetica, sans-serif; }
.title { font-size: 30px; font-weight: 700; fill: #0f172a; }
.subtitle { font-size: 14px; fill: #334155; }
.meta { font-size: 12px; fill: #64748b; }
.frame { fill: white; }
.panel { fill: #EAF2FF; stroke: #e2e8f0; stroke-width: 1.5; rx: 14; }
.tileLabel { font-size: 14px; font-weight: 700; fill: #0f172a; }
.typeLabel { font-size: 11px; fill: #64748b; font-style: italic; }
.tileBorder { fill: none; stroke: #475569; stroke-width: 1.5; }
.cell { fill: #ffffff; stroke: #94a3b8; stroke-width: 1; }
.cellMasked { fill: #e2e8f0; }
.cellHL { stroke-width: 2; }
.cellText { font-family: ui-monospace, SFMono-Regular, Menlo, Monaco, Consolas, 'Liberation Mono', 'Courier New', monospace; font-size: 10px; fill: #0f172a; }
.arrow { stroke-width: 1.5; fill: none; stroke-linejoin: round; stroke-linecap: round; }
.axisLine { stroke: #64748b; stroke-width: 1.5; fill: none; }
.axisText { font-size: 10px; fill: #64748b; font-weight: 700; }
.opCircle { fill: #ffffff; stroke-width: 2; }
.opRect { fill: #ffffff; stroke-width: 2; }
.opText { font-size: 9px; font-weight: 800; fill: #0f172a; }
.procBox { fill: #f8fafc; stroke: #cbd5e1; stroke-width: 1.5; rx: 12; }
.procTitle { font-size: 14px; font-weight: 700; fill: #0f172a; }
.procText { font-family: ui-monospace, SFMono-Regular, Menlo, Monaco, Consolas, 'Liberation Mono', 'Courier New', monospace; font-size: 12px; fill: #0f172a; }
.smallLabel { font-size: 12px; fill: #334155; }
.scalarBox { fill: #ffffff; stroke: #cbd5e1; stroke-width: 1.5; rx: 8; }
.scalarValue { font-size: 14px; font-weight: 700; fill: #2D5BCE; }
.validBox { fill: none; stroke-width: 2; stroke-dasharray: 6 4; }
</style>
<rect x="0" y="0" width="1200" height="720" class="frame" />
<rect x="24" y="24" width="1152" height="672" class="panel" />
<text x="40" y="46" class="title">TADDDEQRELU</text>
<text x="40" y="72" class="subtitle">Fused Add + Dequantize + ReLU: max(0, (src0 + src1) * deqScale).</text>
<text x="40" y="92" class="meta">Template: elementwise</text>
<text x="1160" y="92" class="meta" text-anchor="end">Legend: outline=example; dashed=valid rows/cols (Rv,Cv); shaded=masked; r down / c right; ortho arrows=dataflow</text>
<line x1="36" y1="104" x2="1164" y2="104" stroke="#e2e8f0" stroke-width="1.5" />
<text x="600" y="140" class="subtitle" text-anchor="middle" fill="#2D5BCE">dst[r,c] = max(0, (src0[r,c] + src1[r,c]) * deqScale)    [int32 -> half]</text>

<!-- src0 tile (int32) -->
<text x="410" y="168" class="tileLabel" text-anchor="middle">src0</text>
<text x="410" y="182" class="typeLabel" text-anchor="middle">int32</text>
<rect x="355" y="190" width="110" height="110" class="tileBorder" />
<rect x="355" y="190" width="22" height="22" class="cell" />
<rect x="377" y="190" width="22" height="22" class="cell" />
<rect x="399" y="190" width="22" height="22" class="cell" />
<rect x="421" y="190" width="22" height="22" class="cell" />
<rect x="443" y="190" width="22" height="22" class="cell cellMasked" />
<rect x="355" y="212" width="22" height="22" class="cell" />
<rect x="377" y="212" width="22" height="22" class="cell" />
<rect x="399" y="212" width="22" height="22" class="cell cellHL" stroke="#2D5BCE" />
<rect x="421" y="212" width="22" height="22" class="cell" />
<rect x="443" y="212" width="22" height="22" class="cell cellMasked" />
<rect x="355" y="234" width="22" height="22" class="cell" />
<rect x="377" y="234" width="22" height="22" class="cell" />
<rect x="399" y="234" width="22" height="22" class="cell" />
<rect x="421" y="234" width="22" height="22" class="cell" />
<rect x="443" y="234" width="22" height="22" class="cell cellMasked" />
<rect x="355" y="256" width="22" height="22" class="cell" />
<rect x="377" y="256" width="22" height="22" class="cell" />
<rect x="399" y="256" width="22" height="22" class="cell" />
<rect x="421" y="256" width="22" height="22" class="cell" />
<rect x="443" y="256" width="22" height="22" class="cell cellMasked" />
<rect x="355" y="278" width="22" height="22" class="cell cellMasked" />
<rect x="377" y="278" width="22" height="22" class="cell cellMasked" />
<rect x="399" y="278" width="22" height="22" class="cell cellMasked" />
<rect x="421" y="278" width="22" height="22" class="cell cellMasked" />
<rect x="443" y="278" width="22" height="22" class="cell cellMasked" />
<rect x="355" y="190" width="88" height="88" class="validBox" stroke="#2D5BCE" />
<text x="359" y="274" class="axisText">Rv</text>
<text x="439" y="202" class="axisText" text-anchor="end">Cv</text>
<path d="M 365 200 L 399 200" class="axisLine" marker-end="url(#axisArrow)" />
<path d="M 365 200 L 365 234" class="axisLine" marker-end="url(#axisArrow)" />
<text x="403" y="204" class="axisText">c</text>
<text x="363" y="238" class="axisText" text-anchor="end">r</text>

<!-- src1 tile (int32) -->
<text x="790" y="168" class="tileLabel" text-anchor="middle">src1</text>
<text x="790" y="182" class="typeLabel" text-anchor="middle">int32</text>
<rect x="735" y="190" width="110" height="110" class="tileBorder" />
<rect x="735" y="190" width="22" height="22" class="cell" />
<rect x="757" y="190" width="22" height="22" class="cell" />
<rect x="779" y="190" width="22" height="22" class="cell" />
<rect x="801" y="190" width="22" height="22" class="cell" />
<rect x="823" y="190" width="22" height="22" class="cell cellMasked" />
<rect x="735" y="212" width="22" height="22" class="cell" />
<rect x="757" y="212" width="22" height="22" class="cell" />
<rect x="779" y="212" width="22" height="22" class="cell cellHL" stroke="#2D5BCE" />
<rect x="801" y="212" width="22" height="22" class="cell" />
<rect x="823" y="212" width="22" height="22" class="cell cellMasked" />
<rect x="735" y="234" width="22" height="22" class="cell" />
<rect x="757" y="234" width="22" height="22" class="cell" />
<rect x="779" y="234" width="22" height="22" class="cell" />
<rect x="801" y="234" width="22" height="22" class="cell" />
<rect x="823" y="234" width="22" height="22" class="cell cellMasked" />
<rect x="735" y="256" width="22" height="22" class="cell" />
<rect x="757" y="256" width="22" height="22" class="cell" />
<rect x="779" y="256" width="22" height="22" class="cell" />
<rect x="801" y="256" width="22" height="22" class="cell" />
<rect x="823" y="256" width="22" height="22" class="cell cellMasked" />
<rect x="735" y="278" width="22" height="22" class="cell cellMasked" />
<rect x="757" y="278" width="22" height="22" class="cell cellMasked" />
<rect x="779" y="278" width="22" height="22" class="cell cellMasked" />
<rect x="801" y="278" width="22" height="22" class="cell cellMasked" />
<rect x="823" y="278" width="22" height="22" class="cell cellMasked" />
<rect x="735" y="190" width="88" height="88" class="validBox" stroke="#2D5BCE" />
<text x="739" y="274" class="axisText">Rv</text>
<text x="819" y="202" class="axisText" text-anchor="end">Cv</text>
<path d="M 745 200 L 779 200" class="axisLine" marker-end="url(#axisArrow)" />
<path d="M 745 200 L 745 234" class="axisLine" marker-end="url(#axisArrow)" />
<text x="783" y="204" class="axisText">c</text>
<text x="743" y="238" class="axisText" text-anchor="end">r</text>

<!-- deqScale scalar -->
<rect x="560" y="195" width="80" height="40" class="scalarBox" />
<text x="600" y="212" class="scalarValue" text-anchor="middle">deqScale</text>
<text x="600" y="228" class="typeLabel" text-anchor="middle">float</text>

<!-- Operation box -->
<rect x="530" y="320" width="140" height="36" rx="8" class="opRect" stroke="#2D5BCE" />
<text x="600" y="342" class="opText" font-size="10px" text-anchor="middle">ADD+DEQ+RELU</text>

<!-- Arrows from src0, deqScale, src1 to op box -->
<path d="M 410 312 L 410 338 L 530 338" class="arrow" stroke="#2D5BCE" marker-end="url(#arrow)" />
<path d="M 600 245 L 600 320" class="arrow" stroke="#2D5BCE" marker-end="url(#arrow)" />
<path d="M 790 312 L 790 338 L 670 338" class="arrow" stroke="#2D5BCE" marker-end="url(#arrow)" />

<!-- Arrow from op box to dst -->
<path d="M 600 356 L 600 372" class="arrow" stroke="#2D5BCE" marker-end="url(#arrow)" />

<!-- dst tile (half) -->
<text x="600" y="388" class="tileLabel" text-anchor="middle">dst</text>
<text x="600" y="402" class="typeLabel" text-anchor="middle">half</text>
<rect x="545" y="410" width="110" height="110" class="tileBorder" />
<rect x="545" y="410" width="22" height="22" class="cell" />
<rect x="567" y="410" width="22" height="22" class="cell" />
<rect x="589" y="410" width="22" height="22" class="cell" />
<rect x="611" y="410" width="22" height="22" class="cell" />
<rect x="633" y="410" width="22" height="22" class="cell cellMasked" />
<rect x="545" y="432" width="22" height="22" class="cell" />
<rect x="567" y="432" width="22" height="22" class="cell" />
<rect x="589" y="432" width="22" height="22" class="cell cellHL" stroke="#2D5BCE" />
<rect x="611" y="432" width="22" height="22" class="cell" />
<rect x="633" y="432" width="22" height="22" class="cell cellMasked" />
<rect x="545" y="454" width="22" height="22" class="cell" />
<rect x="567" y="454" width="22" height="22" class="cell" />
<rect x="589" y="454" width="22" height="22" class="cell" />
<rect x="611" y="454" width="22" height="22" class="cell" />
<rect x="633" y="454" width="22" height="22" class="cell cellMasked" />
<rect x="545" y="476" width="22" height="22" class="cell" />
<rect x="567" y="476" width="22" height="22" class="cell" />
<rect x="589" y="476" width="22" height="22" class="cell" />
<rect x="611" y="476" width="22" height="22" class="cell" />
<rect x="633" y="476" width="22" height="22" class="cell cellMasked" />
<rect x="545" y="498" width="22" height="22" class="cell cellMasked" />
<rect x="567" y="498" width="22" height="22" class="cell cellMasked" />
<rect x="589" y="498" width="22" height="22" class="cell cellMasked" />
<rect x="611" y="498" width="22" height="22" class="cell cellMasked" />
<rect x="633" y="498" width="22" height="22" class="cell cellMasked" />
<rect x="545" y="410" width="88" height="88" class="validBox" stroke="#2D5BCE" />
<text x="549" y="494" class="axisText">Rv</text>
<text x="629" y="422" class="axisText" text-anchor="end">Cv</text>
<path d="M 555 420 L 589 420" class="axisLine" marker-end="url(#axisArrow)" />
<path d="M 555 420 L 555 454" class="axisLine" marker-end="url(#axisArrow)" />
<text x="593" y="424" class="axisText">c</text>
<text x="553" y="458" class="axisText" text-anchor="end">r</text>

<!-- Procedure box -->
<rect x="40" y="548" width="1120" height="148" class="procBox" />
<text x="56" y="574" class="procTitle">Procedure (conceptual)</text>
<text x="56" y="600" class="procText" xml:space="preserve">
  <tspan x="56" dy="0">for r in 0..Rv-1:</tspan>
  <tspan x="56" dy="16">  for c in 0..Cv-1:</tspan>
  <tspan x="56" dy="16">    sum = int32(src0[r,c]) + int32(src1[r,c])</tspan>
  <tspan x="56" dy="16">    scaled = float(sum) * deqScale          // precision-compensated: (sum >> 17) * deqScale
</tspan>
</text>
<text x="56" y="668" class="procText" xml:space="preserve">
  <tspan x="56" dy="0">    dst[r,c] = half(max(0, scaled))</tspan>
</text>
<text x="56" y="686" class="meta">Note: src0, src1 are int32; dst is half. Precision-compensated scaling avoids float32 precision loss for large int32 values.</text>
</svg>
